<svg width="20" height="21" viewBox="0 0 20 21" fill="none" xmlns="http://www.w3.org/2000/svg">
<g clip-path="url(#clip0_324_7596)">
<path d="M5.85842 0.994376C4.79442 1.04458 4.06782 1.21438 3.43262 1.46398C2.77522 1.72018 2.21802 2.06398 1.66362 2.62038C1.10922 3.17678 0.767816 3.73438 0.513416 4.39278C0.267216 5.02938 0.100416 5.75658 0.0534162 6.82118C0.00641622 7.88578 -0.00398378 8.22798 0.00121621 10.9436C0.00641621 13.6592 0.0184162 13.9996 0.0700162 15.0664C0.120816 16.1302 0.290016 16.8566 0.539616 17.492C0.796216 18.1494 1.13962 18.7064 1.69622 19.261C2.25282 19.8156 2.81002 20.1562 3.47002 20.411C4.10602 20.6568 4.83342 20.8244 5.89782 20.871C6.96222 20.9176 7.30482 20.9284 10.0196 20.9232C12.7344 20.918 13.0762 20.906 14.1428 20.8554C15.2094 20.8048 15.932 20.6344 16.5676 20.386C17.225 20.1288 17.7824 19.786 18.3366 19.2292C18.8908 18.6724 19.232 18.1144 19.4862 17.4556C19.7326 16.8196 19.9 16.0922 19.9462 15.0286C19.9928 13.9612 20.0038 13.6204 19.9986 10.9052C19.9934 8.18998 19.9812 7.84958 19.9306 6.78318C19.88 5.71678 19.7106 4.99258 19.4612 4.35678C19.2042 3.69938 18.8612 3.14278 18.3048 2.58778C17.7484 2.03278 17.19 1.69178 16.5314 1.43818C15.895 1.19198 15.168 1.02418 14.1036 0.978176C13.0392 0.932176 12.6966 0.920376 9.98082 0.925576C7.26502 0.930776 6.92502 0.942376 5.85842 0.994376ZM5.97522 19.072C5.00022 19.0296 4.47082 18.8676 4.11802 18.732C3.65082 18.552 3.31802 18.3344 2.96642 17.9862C2.61482 17.638 2.39882 17.304 2.21642 16.8378C2.07942 16.485 1.91442 15.9562 1.86882 14.9812C1.81922 13.9274 1.80882 13.611 1.80302 10.9412C1.79722 8.27138 1.80742 7.95538 1.85362 6.90118C1.89522 5.92698 2.05822 5.39698 2.19362 5.04438C2.37362 4.57658 2.59042 4.24438 2.93942 3.89298C3.28842 3.54158 3.62142 3.32518 4.08802 3.14278C4.44042 3.00518 4.96922 2.84158 5.94382 2.79518C6.99842 2.74518 7.31442 2.73518 9.98382 2.72938C12.6532 2.72358 12.97 2.73358 14.025 2.77998C14.9992 2.82238 15.5294 2.98378 15.8816 3.11998C16.349 3.29998 16.6816 3.51618 17.033 3.86578C17.3844 4.21538 17.601 4.54718 17.7834 5.01478C17.9212 5.36618 18.0848 5.89478 18.1308 6.86998C18.181 7.92458 18.1924 8.24078 18.1972 10.91C18.202 13.5792 18.1926 13.8962 18.1464 14.95C18.1038 15.925 17.9422 16.4546 17.8064 16.8078C17.6264 17.2748 17.4094 17.6078 17.0602 17.959C16.711 18.3102 16.3784 18.5266 15.9116 18.709C15.5596 18.8464 15.0302 19.0104 14.0564 19.0568C13.0018 19.1064 12.6858 19.1168 10.0154 19.1226C7.34502 19.1284 7.03002 19.1176 5.97542 19.072M14.1274 5.57978C14.1278 5.81713 14.1986 6.04904 14.3308 6.24616C14.463 6.44329 14.6507 6.59678 14.8701 6.68723C15.0896 6.77768 15.3309 6.80102 15.5636 6.75429C15.7963 6.70757 16.01 6.59289 16.1775 6.42475C16.345 6.2566 16.4589 6.04256 16.5048 5.80968C16.5507 5.5768 16.5264 5.33554 16.4352 5.11643C16.3439 4.89732 16.1898 4.71019 15.9921 4.57871C15.7945 4.44723 15.5624 4.3773 15.325 4.37778C15.0068 4.37841 14.7019 4.5054 14.4773 4.7308C14.2527 4.95621 14.1269 5.26159 14.1274 5.57978ZM4.86542 10.9344C4.87102 13.7704 7.17422 16.0642 10.0096 16.0588C12.845 16.0534 15.1404 13.7504 15.135 10.9144C15.1296 8.07838 12.8258 5.78398 9.99002 5.78958C7.15422 5.79518 4.86002 8.09878 4.86542 10.9344ZM6.66662 10.9308C6.66531 10.2715 6.85954 9.62663 7.22473 9.07773C7.58992 8.52883 8.10968 8.10056 8.71828 7.84705C9.32688 7.59355 9.99698 7.52621 10.6438 7.65355C11.2907 7.78089 11.8853 8.09719 12.3524 8.56245C12.8195 9.02771 13.1382 9.62104 13.2681 10.2674C13.398 10.9138 13.3333 11.5841 13.0822 12.1937C12.8311 12.8033 12.4049 13.3248 11.8574 13.6921C11.31 14.0595 10.6659 14.2563 10.0066 14.2576C9.56885 14.2585 9.1352 14.1732 8.73041 14.0065C8.32563 13.8398 7.95765 13.595 7.64749 13.286C7.33734 12.9771 7.09107 12.6101 6.92277 12.206C6.75447 11.8019 6.66743 11.3685 6.66662 10.9308Z" fill="black"/>
</g>
<defs>
<clipPath id="clip0_324_7596">
<rect width="20" height="20" fill="white" transform="translate(0 0.924316)"/>
</clipPath>
</defs>
</svg>
